<mxfile host="app.diagrams.net" modified="2023-03-29T20:10:51.852Z" agent="Mozilla/5.0 (Windows NT 10.0; Win64; x64) AppleWebKit/537.36 (KHTML, like Gecko) Chrome/111.0.0.0 Safari/537.36    " etag="mchV0A1hm40sbWWvprSE" version="21.1.1" type="google" pages="2">
  <diagram id="C5RBs43oDa-KdzZeNtuy" name="Page-1">
    <mxGraphModel grid="1" page="1" gridSize="10" guides="1" tooltips="1" connect="1" arrows="1" fold="1" pageScale="1" pageWidth="827" pageHeight="1169" math="0" shadow="0">
      <root>
        <mxCell id="WIyWlLk6GJQsqaUBKTNV-0" />
        <mxCell id="WIyWlLk6GJQsqaUBKTNV-1" parent="WIyWlLk6GJQsqaUBKTNV-0" />
        <mxCell id="L_oNVMjCtEeCdWr6rJFx-33" style="edgeStyle=orthogonalEdgeStyle;rounded=0;orthogonalLoop=1;jettySize=auto;html=1;entryX=0;entryY=0.5;entryDx=0;entryDy=0;" edge="1" parent="WIyWlLk6GJQsqaUBKTNV-1" source="L_oNVMjCtEeCdWr6rJFx-35" target="L_oNVMjCtEeCdWr6rJFx-49">
          <mxGeometry relative="1" as="geometry" />
        </mxCell>
        <mxCell id="L_oNVMjCtEeCdWr6rJFx-34" style="edgeStyle=orthogonalEdgeStyle;rounded=0;orthogonalLoop=1;jettySize=auto;html=1;exitX=0.149;exitY=1.058;exitDx=0;exitDy=0;exitPerimeter=0;entryX=0.5;entryY=0;entryDx=0;entryDy=0;" edge="1" parent="WIyWlLk6GJQsqaUBKTNV-1" source="L_oNVMjCtEeCdWr6rJFx-35" target="L_oNVMjCtEeCdWr6rJFx-56">
          <mxGeometry relative="1" as="geometry">
            <mxPoint x="184" y="190" as="sourcePoint" />
            <mxPoint x="184" y="310" as="targetPoint" />
          </mxGeometry>
        </mxCell>
        <mxCell id="L_oNVMjCtEeCdWr6rJFx-35" value="&lt;div&gt;Φανάρι μεγάλου δρόμου: Πράσινο&lt;/div&gt;&lt;div&gt;Φανάρι πεζών: Κόκκινο&lt;/div&gt;&lt;div&gt;Φανάρι τραμ: Κόκκινο&lt;br&gt;&lt;/div&gt;" style="rounded=1;whiteSpace=wrap;html=1;fontSize=12;glass=0;strokeWidth=1;shadow=0;" vertex="1" parent="WIyWlLk6GJQsqaUBKTNV-1">
          <mxGeometry x="154" y="100" width="200" height="80" as="geometry" />
        </mxCell>
        <mxCell id="L_oNVMjCtEeCdWr6rJFx-36" style="edgeStyle=orthogonalEdgeStyle;rounded=0;orthogonalLoop=1;jettySize=auto;html=1;entryX=0;entryY=0.5;entryDx=0;entryDy=0;" edge="1" parent="WIyWlLk6GJQsqaUBKTNV-1" source="L_oNVMjCtEeCdWr6rJFx-37" target="L_oNVMjCtEeCdWr6rJFx-42">
          <mxGeometry relative="1" as="geometry" />
        </mxCell>
        <mxCell id="L_oNVMjCtEeCdWr6rJFx-37" value="&lt;div&gt;&lt;b&gt;(Για χρονικό διάστημα Τ2)&lt;/b&gt;&lt;br&gt;&lt;/div&gt;&lt;div&gt;Φανάρι μεγάλου δρόμου: Κόκκινο&lt;/div&gt;&lt;div&gt;Φανάρι πεζών: Πράσινο&lt;br&gt;&lt;/div&gt;&lt;div&gt;Φανάρι τραμ: Κόκκινο&lt;br&gt;&lt;/div&gt;" style="rounded=1;whiteSpace=wrap;html=1;fontSize=12;glass=0;strokeWidth=1;shadow=0;" vertex="1" parent="WIyWlLk6GJQsqaUBKTNV-1">
          <mxGeometry x="223" y="530" width="190" height="80" as="geometry" />
        </mxCell>
        <mxCell id="L_oNVMjCtEeCdWr6rJFx-38" style="edgeStyle=orthogonalEdgeStyle;rounded=0;orthogonalLoop=1;jettySize=auto;html=1;entryX=0.5;entryY=0;entryDx=0;entryDy=0;" edge="1" parent="WIyWlLk6GJQsqaUBKTNV-1" source="L_oNVMjCtEeCdWr6rJFx-39" target="L_oNVMjCtEeCdWr6rJFx-64">
          <mxGeometry relative="1" as="geometry">
            <mxPoint x="704" y="240" as="targetPoint" />
          </mxGeometry>
        </mxCell>
        <mxCell id="L_oNVMjCtEeCdWr6rJFx-39" value="&lt;div&gt;&lt;b&gt;(Για χρονικό διάστημα Τ2)&lt;/b&gt;&lt;/div&gt;&lt;div&gt;Φανάρι μεγάλου δρόμου: Κόκκινο&lt;/div&gt;&lt;div&gt;Φανάρι πεζών: Πράσινο&lt;/div&gt;&lt;div&gt;Φανάρι τραμ: Πράσινο&lt;br&gt;&lt;/div&gt;" style="rounded=1;whiteSpace=wrap;html=1;fontSize=12;glass=0;strokeWidth=1;shadow=0;" vertex="1" parent="WIyWlLk6GJQsqaUBKTNV-1">
          <mxGeometry x="609" y="100" width="190" height="80" as="geometry" />
        </mxCell>
        <mxCell id="L_oNVMjCtEeCdWr6rJFx-40" style="edgeStyle=orthogonalEdgeStyle;rounded=0;orthogonalLoop=1;jettySize=auto;html=1;entryX=0.5;entryY=0;entryDx=0;entryDy=0;" edge="1" parent="WIyWlLk6GJQsqaUBKTNV-1" source="L_oNVMjCtEeCdWr6rJFx-42" target="L_oNVMjCtEeCdWr6rJFx-37">
          <mxGeometry relative="1" as="geometry">
            <Array as="points">
              <mxPoint x="549" y="470" />
              <mxPoint x="318" y="470" />
            </Array>
          </mxGeometry>
        </mxCell>
        <mxCell id="L_oNVMjCtEeCdWr6rJFx-41" style="edgeStyle=orthogonalEdgeStyle;rounded=0;orthogonalLoop=1;jettySize=auto;html=1;exitX=1;exitY=0.5;exitDx=0;exitDy=0;" edge="1" parent="WIyWlLk6GJQsqaUBKTNV-1" source="L_oNVMjCtEeCdWr6rJFx-42">
          <mxGeometry relative="1" as="geometry">
            <Array as="points">
              <mxPoint x="634" y="570" />
              <mxPoint x="634" y="350" />
              <mxPoint x="284" y="350" />
              <mxPoint x="284" y="180" />
            </Array>
            <mxPoint x="284" y="180" as="targetPoint" />
          </mxGeometry>
        </mxCell>
        <mxCell id="L_oNVMjCtEeCdWr6rJFx-42" value="&lt;div&gt;Έχει περάσει &lt;br&gt;&lt;/div&gt;&lt;div&gt;T2 χρόνος από τη &lt;br&gt;&lt;/div&gt;&lt;div&gt;στιγμή που πατήθηκε&lt;br&gt;&lt;/div&gt;&lt;div&gt;&amp;nbsp;το κουμπί;&lt;/div&gt;" style="rhombus;whiteSpace=wrap;html=1;" vertex="1" parent="WIyWlLk6GJQsqaUBKTNV-1">
          <mxGeometry x="479" y="500" width="140" height="140" as="geometry" />
        </mxCell>
        <mxCell id="L_oNVMjCtEeCdWr6rJFx-43" value="ΟΧΙ" style="text;html=1;align=center;verticalAlign=middle;resizable=0;points=[];autosize=1;strokeColor=none;fillColor=none;" vertex="1" parent="WIyWlLk6GJQsqaUBKTNV-1">
          <mxGeometry x="774" y="220" width="40" height="30" as="geometry" />
        </mxCell>
        <mxCell id="L_oNVMjCtEeCdWr6rJFx-44" style="edgeStyle=orthogonalEdgeStyle;rounded=0;orthogonalLoop=1;jettySize=auto;html=1;entryX=0.75;entryY=1;entryDx=0;entryDy=0;exitX=0;exitY=0.5;exitDx=0;exitDy=0;" edge="1" parent="WIyWlLk6GJQsqaUBKTNV-1" source="L_oNVMjCtEeCdWr6rJFx-64" target="L_oNVMjCtEeCdWr6rJFx-35">
          <mxGeometry relative="1" as="geometry">
            <mxPoint x="329" y="210" as="targetPoint" />
            <mxPoint x="619" y="325" as="sourcePoint" />
          </mxGeometry>
        </mxCell>
        <mxCell id="L_oNVMjCtEeCdWr6rJFx-45" style="edgeStyle=orthogonalEdgeStyle;rounded=0;orthogonalLoop=1;jettySize=auto;html=1;exitX=1;exitY=0.5;exitDx=0;exitDy=0;entryX=1;entryY=0.5;entryDx=0;entryDy=0;" edge="1" parent="WIyWlLk6GJQsqaUBKTNV-1" source="L_oNVMjCtEeCdWr6rJFx-64" target="L_oNVMjCtEeCdWr6rJFx-39">
          <mxGeometry relative="1" as="geometry">
            <Array as="points">
              <mxPoint x="814" y="320" />
              <mxPoint x="814" y="140" />
            </Array>
            <mxPoint x="789" y="325" as="sourcePoint" />
          </mxGeometry>
        </mxCell>
        <mxCell id="L_oNVMjCtEeCdWr6rJFx-47" style="edgeStyle=orthogonalEdgeStyle;rounded=0;orthogonalLoop=1;jettySize=auto;html=1;entryX=0;entryY=0.5;entryDx=0;entryDy=0;" edge="1" parent="WIyWlLk6GJQsqaUBKTNV-1" source="L_oNVMjCtEeCdWr6rJFx-49" target="L_oNVMjCtEeCdWr6rJFx-39">
          <mxGeometry relative="1" as="geometry" />
        </mxCell>
        <mxCell id="L_oNVMjCtEeCdWr6rJFx-48" style="edgeStyle=orthogonalEdgeStyle;rounded=0;orthogonalLoop=1;jettySize=auto;html=1;entryX=0.5;entryY=0;entryDx=0;entryDy=0;" edge="1" parent="WIyWlLk6GJQsqaUBKTNV-1" source="L_oNVMjCtEeCdWr6rJFx-49" target="L_oNVMjCtEeCdWr6rJFx-35">
          <mxGeometry relative="1" as="geometry">
            <Array as="points">
              <mxPoint x="484" y="50" />
              <mxPoint x="254" y="50" />
            </Array>
          </mxGeometry>
        </mxCell>
        <mxCell id="L_oNVMjCtEeCdWr6rJFx-49" value="&lt;div&gt;Έχει περάσει χρόνος Τ1;&lt;/div&gt;" style="rhombus;whiteSpace=wrap;html=1;" vertex="1" parent="WIyWlLk6GJQsqaUBKTNV-1">
          <mxGeometry x="414" y="70" width="140" height="140" as="geometry" />
        </mxCell>
        <mxCell id="L_oNVMjCtEeCdWr6rJFx-50" value="ΝΑΙ" style="text;html=1;align=center;verticalAlign=middle;resizable=0;points=[];autosize=1;strokeColor=none;fillColor=none;" vertex="1" parent="WIyWlLk6GJQsqaUBKTNV-1">
          <mxGeometry x="388" y="290" width="40" height="30" as="geometry" />
        </mxCell>
        <mxCell id="L_oNVMjCtEeCdWr6rJFx-51" style="edgeStyle=orthogonalEdgeStyle;rounded=0;orthogonalLoop=1;jettySize=auto;html=1;exitX=1;exitY=0.5;exitDx=0;exitDy=0;entryX=0;entryY=0.5;entryDx=0;entryDy=0;" edge="1" parent="WIyWlLk6GJQsqaUBKTNV-1" source="L_oNVMjCtEeCdWr6rJFx-52" target="L_oNVMjCtEeCdWr6rJFx-35">
          <mxGeometry relative="1" as="geometry" />
        </mxCell>
        <mxCell id="L_oNVMjCtEeCdWr6rJFx-52" value="Start" style="ellipse;whiteSpace=wrap;html=1;aspect=fixed;" vertex="1" parent="WIyWlLk6GJQsqaUBKTNV-1">
          <mxGeometry x="14" y="100" width="80" height="80" as="geometry" />
        </mxCell>
        <mxCell id="L_oNVMjCtEeCdWr6rJFx-53" value="ΝΑΙ" style="text;html=1;align=center;verticalAlign=middle;resizable=0;points=[];autosize=1;strokeColor=none;fillColor=none;" vertex="1" parent="WIyWlLk6GJQsqaUBKTNV-1">
          <mxGeometry x="554" y="110" width="40" height="30" as="geometry" />
        </mxCell>
        <mxCell id="L_oNVMjCtEeCdWr6rJFx-54" value="ΟΧΙ" style="text;html=1;align=center;verticalAlign=middle;resizable=0;points=[];autosize=1;strokeColor=none;fillColor=none;" vertex="1" parent="WIyWlLk6GJQsqaUBKTNV-1">
          <mxGeometry x="354" y="20" width="40" height="30" as="geometry" />
        </mxCell>
        <mxCell id="L_oNVMjCtEeCdWr6rJFx-55" style="edgeStyle=orthogonalEdgeStyle;rounded=0;orthogonalLoop=1;jettySize=auto;html=1;entryX=0.5;entryY=0;entryDx=0;entryDy=0;" edge="1" parent="WIyWlLk6GJQsqaUBKTNV-1" source="L_oNVMjCtEeCdWr6rJFx-56" target="L_oNVMjCtEeCdWr6rJFx-61">
          <mxGeometry relative="1" as="geometry" />
        </mxCell>
        <mxCell id="L_oNVMjCtEeCdWr6rJFx-56" value="&lt;div&gt;Interrupt(PORTF):&lt;br&gt;&lt;/div&gt;&lt;div&gt;Πεζός πατάει το κουμπί &lt;br&gt;&lt;/div&gt;&lt;div&gt;(για τους πεζούς)&lt;br&gt;&lt;/div&gt;" style="shape=parallelogram;perimeter=parallelogramPerimeter;whiteSpace=wrap;html=1;fixedSize=1;" vertex="1" parent="WIyWlLk6GJQsqaUBKTNV-1">
          <mxGeometry x="14" y="260" width="160" height="70" as="geometry" />
        </mxCell>
        <mxCell id="L_oNVMjCtEeCdWr6rJFx-57" value="ΟΧΙ" style="text;html=1;align=center;verticalAlign=middle;resizable=0;points=[];autosize=1;strokeColor=none;fillColor=none;" vertex="1" parent="WIyWlLk6GJQsqaUBKTNV-1">
          <mxGeometry x="413" y="470" width="40" height="30" as="geometry" />
        </mxCell>
        <mxCell id="L_oNVMjCtEeCdWr6rJFx-58" value="ΝΑΙ" style="text;html=1;align=center;verticalAlign=middle;resizable=0;points=[];autosize=1;strokeColor=none;fillColor=none;" vertex="1" parent="WIyWlLk6GJQsqaUBKTNV-1">
          <mxGeometry x="579" y="480" width="40" height="30" as="geometry" />
        </mxCell>
        <mxCell id="L_oNVMjCtEeCdWr6rJFx-59" style="edgeStyle=orthogonalEdgeStyle;rounded=0;orthogonalLoop=1;jettySize=auto;html=1;entryX=0;entryY=0.5;entryDx=0;entryDy=0;exitX=0.5;exitY=1;exitDx=0;exitDy=0;" edge="1" parent="WIyWlLk6GJQsqaUBKTNV-1" source="L_oNVMjCtEeCdWr6rJFx-61" target="L_oNVMjCtEeCdWr6rJFx-37">
          <mxGeometry relative="1" as="geometry" />
        </mxCell>
        <mxCell id="L_oNVMjCtEeCdWr6rJFx-60" style="edgeStyle=orthogonalEdgeStyle;rounded=0;orthogonalLoop=1;jettySize=auto;html=1;entryX=0.5;entryY=1;entryDx=0;entryDy=0;exitX=1;exitY=0.5;exitDx=0;exitDy=0;" edge="1" parent="WIyWlLk6GJQsqaUBKTNV-1" source="L_oNVMjCtEeCdWr6rJFx-61" target="L_oNVMjCtEeCdWr6rJFx-35">
          <mxGeometry relative="1" as="geometry" />
        </mxCell>
        <mxCell id="L_oNVMjCtEeCdWr6rJFx-61" value="&lt;div&gt;Έχει περάσει Τ3 &lt;br&gt;&lt;/div&gt;&lt;div&gt;χρόνος από το προηγούμενο πάτημα &lt;br&gt;&lt;/div&gt;&lt;div&gt;του κουμπιού;&lt;/div&gt;" style="rhombus;whiteSpace=wrap;html=1;" vertex="1" parent="WIyWlLk6GJQsqaUBKTNV-1">
          <mxGeometry x="24" y="410" width="140" height="140" as="geometry" />
        </mxCell>
        <mxCell id="L_oNVMjCtEeCdWr6rJFx-62" value="ΝΑΙ" style="text;html=1;align=center;verticalAlign=middle;resizable=0;points=[];autosize=1;strokeColor=none;fillColor=none;" vertex="1" parent="WIyWlLk6GJQsqaUBKTNV-1">
          <mxGeometry x="144" y="535" width="40" height="30" as="geometry" />
        </mxCell>
        <mxCell id="L_oNVMjCtEeCdWr6rJFx-63" value="ΟΧΙ" style="text;html=1;align=center;verticalAlign=middle;resizable=0;points=[];autosize=1;strokeColor=none;fillColor=none;" vertex="1" parent="WIyWlLk6GJQsqaUBKTNV-1">
          <mxGeometry x="214" y="340" width="40" height="30" as="geometry" />
        </mxCell>
        <mxCell id="L_oNVMjCtEeCdWr6rJFx-64" value="&lt;div&gt;Έχει περάσει χρόνος Τ2;&lt;/div&gt;" style="rhombus;whiteSpace=wrap;html=1;" vertex="1" parent="WIyWlLk6GJQsqaUBKTNV-1">
          <mxGeometry x="634" y="250" width="140" height="140" as="geometry" />
        </mxCell>
        <mxCell id="L_oNVMjCtEeCdWr6rJFx-65" value="&lt;div&gt;Interrupt &lt;br&gt;&lt;/div&gt;&lt;div&gt;της LCMP0 &lt;/div&gt;" style="text;html=1;align=center;verticalAlign=middle;resizable=0;points=[];autosize=1;strokeColor=none;fillColor=none;" vertex="1" parent="WIyWlLk6GJQsqaUBKTNV-1">
          <mxGeometry x="534" y="150" width="80" height="40" as="geometry" />
        </mxCell>
        <mxCell id="fpcN0Y4hwvlTqRbEXtYs-0" value="&lt;div style=&quot;border-color: var(--border-color);&quot;&gt;Interrupt&lt;br style=&quot;border-color: var(--border-color);&quot;&gt;&lt;/div&gt;&lt;div style=&quot;border-color: var(--border-color);&quot;&gt;(HUNF)&lt;/div&gt;" style="text;html=1;strokeColor=none;fillColor=none;align=center;verticalAlign=middle;whiteSpace=wrap;rounded=0;" vertex="1" parent="WIyWlLk6GJQsqaUBKTNV-1">
          <mxGeometry x="644" y="480" width="60" height="30" as="geometry" />
        </mxCell>
      </root>
    </mxGraphModel>
  </diagram>
  <diagram name="Copy of Page-1" id="JpdJwHOZ4JwCTg5-lYi-">
    <mxGraphModel grid="1" page="1" gridSize="10" guides="1" tooltips="1" connect="1" arrows="1" fold="1" pageScale="1" pageWidth="827" pageHeight="1169" math="0" shadow="0">
      <root>
        <mxCell id="jimW1SZuYFGPeaCcmxh1-0" />
        <mxCell id="jimW1SZuYFGPeaCcmxh1-1" parent="jimW1SZuYFGPeaCcmxh1-0" />
        <mxCell id="jimW1SZuYFGPeaCcmxh1-30" style="edgeStyle=orthogonalEdgeStyle;rounded=0;orthogonalLoop=1;jettySize=auto;html=1;entryX=0.5;entryY=0;entryDx=0;entryDy=0;exitX=0.5;exitY=1;exitDx=0;exitDy=0;strokeColor=#FF0D0D;" parent="jimW1SZuYFGPeaCcmxh1-1" source="u9J_gCv-DiISZu-6m71f-16" edge="1">
          <mxGeometry relative="1" as="geometry">
            <mxPoint x="370" y="620" as="sourcePoint" />
            <mxPoint x="324" y="650" as="targetPoint" />
          </mxGeometry>
        </mxCell>
        <mxCell id="jimW1SZuYFGPeaCcmxh1-31" value="Αρχικοποίηση LCNT(Τ1 για τραμ)" style="rounded=1;whiteSpace=wrap;html=1;fontSize=12;glass=0;strokeWidth=1;shadow=0;" parent="jimW1SZuYFGPeaCcmxh1-1" vertex="1">
          <mxGeometry x="243" y="397.5" width="86" height="65" as="geometry" />
        </mxCell>
        <mxCell id="jimW1SZuYFGPeaCcmxh1-33" value="&lt;div&gt;O HCNT μετρά για χρόνο Τ2&lt;/div&gt;" style="rounded=1;whiteSpace=wrap;html=1;fontSize=12;glass=0;strokeWidth=1;shadow=0;" parent="jimW1SZuYFGPeaCcmxh1-1" vertex="1">
          <mxGeometry x="540" y="660" width="120" height="50" as="geometry" />
        </mxCell>
        <mxCell id="jimW1SZuYFGPeaCcmxh1-44" value="&lt;div&gt;Έχει περάσει &lt;br&gt;&lt;/div&gt;&lt;div&gt;χρόνος Τ1;&lt;/div&gt;" style="rhombus;whiteSpace=wrap;html=1;" parent="jimW1SZuYFGPeaCcmxh1-1" vertex="1">
          <mxGeometry x="140" y="485" width="90" height="92.5" as="geometry" />
        </mxCell>
        <mxCell id="jimW1SZuYFGPeaCcmxh1-47" value="Start" style="ellipse;whiteSpace=wrap;html=1;aspect=fixed;" parent="jimW1SZuYFGPeaCcmxh1-1" vertex="1">
          <mxGeometry x="20" y="402.5" width="60" height="60" as="geometry" />
        </mxCell>
        <mxCell id="jimW1SZuYFGPeaCcmxh1-50" style="edgeStyle=orthogonalEdgeStyle;rounded=0;orthogonalLoop=1;jettySize=auto;html=1;entryX=0.5;entryY=0;entryDx=0;entryDy=0;exitX=0.5;exitY=1;exitDx=0;exitDy=0;" parent="jimW1SZuYFGPeaCcmxh1-1" target="jimW1SZuYFGPeaCcmxh1-56" edge="1">
          <mxGeometry relative="1" as="geometry">
            <mxPoint x="324" y="720" as="sourcePoint" />
            <Array as="points">
              <mxPoint x="320" y="720" />
              <mxPoint x="320" y="745" />
            </Array>
          </mxGeometry>
        </mxCell>
        <mxCell id="jimW1SZuYFGPeaCcmxh1-51" value="&lt;div&gt;&lt;span style=&quot;background-color: initial;&quot;&gt;Ενεργοποίηση Pin5 PORTF&lt;/span&gt;&lt;br&gt;&lt;/div&gt;" style="shape=parallelogram;perimeter=parallelogramPerimeter;whiteSpace=wrap;html=1;fixedSize=1;" parent="jimW1SZuYFGPeaCcmxh1-1" vertex="1">
          <mxGeometry x="253.5" y="650" width="141" height="70" as="geometry" />
        </mxCell>
        <mxCell id="jimW1SZuYFGPeaCcmxh1-54" style="edgeStyle=orthogonalEdgeStyle;rounded=0;orthogonalLoop=1;jettySize=auto;html=1;exitX=0;exitY=1;exitDx=0;exitDy=0;entryX=0;entryY=0.5;entryDx=0;entryDy=0;" parent="jimW1SZuYFGPeaCcmxh1-1" source="jimW1SZuYFGPeaCcmxh1-56" target="u9J_gCv-DiISZu-6m71f-19" edge="1">
          <mxGeometry relative="1" as="geometry">
            <mxPoint x="240" y="951" as="targetPoint" />
            <Array as="points">
              <mxPoint x="220" y="857" />
              <mxPoint x="220" y="950" />
              <mxPoint x="240" y="950" />
            </Array>
          </mxGeometry>
        </mxCell>
        <mxCell id="jimW1SZuYFGPeaCcmxh1-56" value="&lt;div&gt;Έχει περάσει Τ3 &lt;br&gt;&lt;/div&gt;&lt;div&gt;χρόνος από το προηγούμενο πάτημα &lt;br&gt;&lt;/div&gt;&lt;div&gt;του κουμπιού;(αν εχει ξαναπατηθει)&lt;/div&gt;" style="rhombus;whiteSpace=wrap;html=1;" parent="jimW1SZuYFGPeaCcmxh1-1" vertex="1">
          <mxGeometry x="250" y="745" width="140" height="150" as="geometry" />
        </mxCell>
        <mxCell id="jimW1SZuYFGPeaCcmxh1-57" value="ΝΑΙ" style="text;html=1;align=center;verticalAlign=middle;resizable=0;points=[];autosize=1;strokeColor=none;fillColor=none;" parent="jimW1SZuYFGPeaCcmxh1-1" vertex="1">
          <mxGeometry x="225" y="885" width="40" height="30" as="geometry" />
        </mxCell>
        <mxCell id="jimW1SZuYFGPeaCcmxh1-58" value="ΟΧΙ" style="text;html=1;align=center;verticalAlign=middle;resizable=0;points=[];autosize=1;strokeColor=none;fillColor=none;" parent="jimW1SZuYFGPeaCcmxh1-1" vertex="1">
          <mxGeometry x="455" y="720" width="40" height="30" as="geometry" />
        </mxCell>
        <mxCell id="u9J_gCv-DiISZu-6m71f-0" value="Αρχικοποίηση των LEDs &amp;amp; Pin5 τουPORTF" style="rounded=1;whiteSpace=wrap;html=1;" vertex="1" parent="jimW1SZuYFGPeaCcmxh1-1">
          <mxGeometry x="114" y="402.5" width="90" height="60" as="geometry" />
        </mxCell>
        <mxCell id="u9J_gCv-DiISZu-6m71f-1" value="" style="endArrow=classic;html=1;rounded=0;entryX=0;entryY=0.5;entryDx=0;entryDy=0;exitX=1;exitY=0.5;exitDx=0;exitDy=0;" edge="1" parent="jimW1SZuYFGPeaCcmxh1-1">
          <mxGeometry width="50" height="50" relative="1" as="geometry">
            <mxPoint x="204" y="430" as="sourcePoint" />
            <mxPoint x="244" y="430" as="targetPoint" />
          </mxGeometry>
        </mxCell>
        <mxCell id="u9J_gCv-DiISZu-6m71f-3" value="Ενεργοποίηση TCA0 (ξεκινα ο LCNT)" style="rounded=1;whiteSpace=wrap;html=1;" vertex="1" parent="jimW1SZuYFGPeaCcmxh1-1">
          <mxGeometry x="365" y="402.5" width="90" height="60" as="geometry" />
        </mxCell>
        <mxCell id="u9J_gCv-DiISZu-6m71f-6" value="Καθορισμός των αποδεκτών interrupts μέσω του INTCTRL" style="rounded=1;whiteSpace=wrap;html=1;" vertex="1" parent="jimW1SZuYFGPeaCcmxh1-1">
          <mxGeometry x="480" y="402.5" width="120" height="60" as="geometry" />
        </mxCell>
        <mxCell id="u9J_gCv-DiISZu-6m71f-7" value="" style="endArrow=classic;html=1;rounded=0;entryX=0;entryY=0.5;entryDx=0;entryDy=0;exitX=1;exitY=0.5;exitDx=0;exitDy=0;" edge="1" parent="jimW1SZuYFGPeaCcmxh1-1">
          <mxGeometry width="50" height="50" relative="1" as="geometry">
            <mxPoint x="330" y="430" as="sourcePoint" />
            <mxPoint x="365" y="430" as="targetPoint" />
          </mxGeometry>
        </mxCell>
        <mxCell id="u9J_gCv-DiISZu-6m71f-8" value="" style="endArrow=classic;html=1;rounded=0;exitX=1;exitY=0.5;exitDx=0;exitDy=0;" edge="1" parent="jimW1SZuYFGPeaCcmxh1-1">
          <mxGeometry width="50" height="50" relative="1" as="geometry">
            <mxPoint x="455" y="430" as="sourcePoint" />
            <mxPoint x="480" y="430" as="targetPoint" />
          </mxGeometry>
        </mxCell>
        <mxCell id="u9J_gCv-DiISZu-6m71f-9" value="" style="endArrow=classic;html=1;rounded=0;exitX=1;exitY=0.5;exitDx=0;exitDy=0;entryX=0;entryY=0.5;entryDx=0;entryDy=0;" edge="1" parent="jimW1SZuYFGPeaCcmxh1-1" source="u9J_gCv-DiISZu-6m71f-6" target="u9J_gCv-DiISZu-6m71f-11">
          <mxGeometry width="50" height="50" relative="1" as="geometry">
            <mxPoint x="370" y="570" as="sourcePoint" />
            <mxPoint x="640" y="432.5" as="targetPoint" />
          </mxGeometry>
        </mxCell>
        <mxCell id="u9J_gCv-DiISZu-6m71f-11" value="while(1)" style="rhombus;whiteSpace=wrap;html=1;" vertex="1" parent="jimW1SZuYFGPeaCcmxh1-1">
          <mxGeometry x="640" y="392.5" width="80" height="80" as="geometry" />
        </mxCell>
        <mxCell id="u9J_gCv-DiISZu-6m71f-13" value="" style="endArrow=classic;html=1;rounded=0;exitX=0.5;exitY=1;exitDx=0;exitDy=0;" edge="1" parent="jimW1SZuYFGPeaCcmxh1-1" target="eKpauIbjjusxW1kpMZVV-0">
          <mxGeometry width="50" height="50" relative="1" as="geometry">
            <mxPoint x="680" y="472.5" as="sourcePoint" />
            <mxPoint x="680" y="490" as="targetPoint" />
          </mxGeometry>
        </mxCell>
        <mxCell id="u9J_gCv-DiISZu-6m71f-14" value="while(pezoi)" style="rhombus;whiteSpace=wrap;html=1;" vertex="1" parent="jimW1SZuYFGPeaCcmxh1-1">
          <mxGeometry x="440" y="548.75" width="100" height="97.5" as="geometry" />
        </mxCell>
        <mxCell id="u9J_gCv-DiISZu-6m71f-16" value="Car led ON" style="rounded=1;whiteSpace=wrap;html=1;" vertex="1" parent="jimW1SZuYFGPeaCcmxh1-1">
          <mxGeometry x="294" y="577.5" width="60" height="40" as="geometry" />
        </mxCell>
        <mxCell id="u9J_gCv-DiISZu-6m71f-17" value="" style="endArrow=classic;html=1;rounded=0;entryX=1;entryY=0.5;entryDx=0;entryDy=0;exitX=0;exitY=0.5;exitDx=0;exitDy=0;" edge="1" parent="jimW1SZuYFGPeaCcmxh1-1" source="u9J_gCv-DiISZu-6m71f-14" target="u9J_gCv-DiISZu-6m71f-16">
          <mxGeometry width="50" height="50" relative="1" as="geometry">
            <mxPoint x="300" y="740" as="sourcePoint" />
            <mxPoint x="350" y="690" as="targetPoint" />
          </mxGeometry>
        </mxCell>
        <mxCell id="u9J_gCv-DiISZu-6m71f-18" value="" style="endArrow=classic;html=1;rounded=0;entryX=0.5;entryY=1;entryDx=0;entryDy=0;exitX=1;exitY=0.5;exitDx=0;exitDy=0;" edge="1" parent="jimW1SZuYFGPeaCcmxh1-1" source="jimW1SZuYFGPeaCcmxh1-56" target="u9J_gCv-DiISZu-6m71f-14">
          <mxGeometry width="50" height="50" relative="1" as="geometry">
            <mxPoint x="210" y="750" as="sourcePoint" />
            <mxPoint x="260" y="700" as="targetPoint" />
            <Array as="points">
              <mxPoint x="490" y="820" />
            </Array>
          </mxGeometry>
        </mxCell>
        <mxCell id="u9J_gCv-DiISZu-6m71f-19" value="ISR(PORTF)" style="rounded=1;whiteSpace=wrap;html=1;" vertex="1" parent="jimW1SZuYFGPeaCcmxh1-1">
          <mxGeometry x="240" y="929" width="80" height="41" as="geometry" />
        </mxCell>
        <mxCell id="u9J_gCv-DiISZu-6m71f-22" value="Led Πεζών ON" style="rounded=1;whiteSpace=wrap;html=1;" vertex="1" parent="jimW1SZuYFGPeaCcmxh1-1">
          <mxGeometry x="360" y="930" width="60" height="40" as="geometry" />
        </mxCell>
        <mxCell id="u9J_gCv-DiISZu-6m71f-24" value="" style="endArrow=classic;html=1;rounded=0;entryX=0;entryY=0.5;entryDx=0;entryDy=0;" edge="1" parent="jimW1SZuYFGPeaCcmxh1-1" target="u9J_gCv-DiISZu-6m71f-22">
          <mxGeometry width="50" height="50" relative="1" as="geometry">
            <mxPoint x="320" y="950" as="sourcePoint" />
            <mxPoint x="350" y="950" as="targetPoint" />
          </mxGeometry>
        </mxCell>
        <mxCell id="u9J_gCv-DiISZu-6m71f-25" value="" style="endArrow=classic;html=1;rounded=0;" edge="1" parent="jimW1SZuYFGPeaCcmxh1-1">
          <mxGeometry width="50" height="50" relative="1" as="geometry">
            <mxPoint x="510" y="850" as="sourcePoint" />
            <mxPoint x="510" y="630" as="targetPoint" />
            <Array as="points" />
          </mxGeometry>
        </mxCell>
        <mxCell id="u9J_gCv-DiISZu-6m71f-26" value="" style="endArrow=classic;html=1;rounded=0;entryX=0.5;entryY=0;entryDx=0;entryDy=0;exitX=0.86;exitY=0.69;exitDx=0;exitDy=0;exitPerimeter=0;" edge="1" parent="jimW1SZuYFGPeaCcmxh1-1" source="u9J_gCv-DiISZu-6m71f-14" target="jimW1SZuYFGPeaCcmxh1-33">
          <mxGeometry width="50" height="50" relative="1" as="geometry">
            <mxPoint x="210" y="840" as="sourcePoint" />
            <mxPoint x="560" y="660" as="targetPoint" />
          </mxGeometry>
        </mxCell>
        <mxCell id="u9J_gCv-DiISZu-6m71f-27" value="pezoi==1" style="text;html=1;strokeColor=none;fillColor=none;align=center;verticalAlign=middle;whiteSpace=wrap;rounded=0;" vertex="1" parent="jimW1SZuYFGPeaCcmxh1-1">
          <mxGeometry x="575" y="617.5" width="60" height="30" as="geometry" />
        </mxCell>
        <mxCell id="u9J_gCv-DiISZu-6m71f-30" value="pezoi==0" style="text;html=1;strokeColor=none;fillColor=none;align=center;verticalAlign=middle;whiteSpace=wrap;rounded=0;" vertex="1" parent="jimW1SZuYFGPeaCcmxh1-1">
          <mxGeometry x="367.5" y="570" width="60" height="30" as="geometry" />
        </mxCell>
        <mxCell id="u9J_gCv-DiISZu-6m71f-32" value="" style="endArrow=classic;html=1;rounded=0;exitX=0.5;exitY=1;exitDx=0;exitDy=0;entryX=0.5;entryY=0;entryDx=0;entryDy=0;" edge="1" parent="jimW1SZuYFGPeaCcmxh1-1" source="u9J_gCv-DiISZu-6m71f-33" target="u9J_gCv-DiISZu-6m71f-34">
          <mxGeometry width="50" height="50" relative="1" as="geometry">
            <mxPoint x="210" y="760" as="sourcePoint" />
            <mxPoint x="600" y="800" as="targetPoint" />
          </mxGeometry>
        </mxCell>
        <mxCell id="u9J_gCv-DiISZu-6m71f-34" value="Led Πεζών OFF" style="rounded=1;whiteSpace=wrap;html=1;" vertex="1" parent="jimW1SZuYFGPeaCcmxh1-1">
          <mxGeometry x="570" y="820" width="60" height="40" as="geometry" />
        </mxCell>
        <mxCell id="u9J_gCv-DiISZu-6m71f-35" value="Car led ON" style="rounded=1;whiteSpace=wrap;html=1;" vertex="1" parent="jimW1SZuYFGPeaCcmxh1-1">
          <mxGeometry x="570" y="880" width="60" height="40" as="geometry" />
        </mxCell>
        <mxCell id="u9J_gCv-DiISZu-6m71f-36" value="" style="endArrow=classic;html=1;rounded=0;exitX=0.5;exitY=1;exitDx=0;exitDy=0;" edge="1" parent="jimW1SZuYFGPeaCcmxh1-1" source="jimW1SZuYFGPeaCcmxh1-33" target="u9J_gCv-DiISZu-6m71f-33">
          <mxGeometry width="50" height="50" relative="1" as="geometry">
            <mxPoint x="600" y="745" as="sourcePoint" />
            <mxPoint x="600" y="800" as="targetPoint" />
          </mxGeometry>
        </mxCell>
        <mxCell id="u9J_gCv-DiISZu-6m71f-33" value="ISR(HUNF)" style="rounded=1;whiteSpace=wrap;html=1;" vertex="1" parent="jimW1SZuYFGPeaCcmxh1-1">
          <mxGeometry x="560" y="760" width="80" height="41" as="geometry" />
        </mxCell>
        <mxCell id="u9J_gCv-DiISZu-6m71f-37" value="" style="endArrow=classic;html=1;rounded=0;entryX=0.5;entryY=0;entryDx=0;entryDy=0;exitX=0.5;exitY=1;exitDx=0;exitDy=0;" edge="1" parent="jimW1SZuYFGPeaCcmxh1-1" source="u9J_gCv-DiISZu-6m71f-34" target="u9J_gCv-DiISZu-6m71f-35">
          <mxGeometry width="50" height="50" relative="1" as="geometry">
            <mxPoint x="210" y="760" as="sourcePoint" />
            <mxPoint x="260" y="710" as="targetPoint" />
          </mxGeometry>
        </mxCell>
        <mxCell id="u9J_gCv-DiISZu-6m71f-38" value="" style="endArrow=classic;html=1;rounded=0;entryX=1;entryY=0.5;entryDx=0;entryDy=0;exitX=1;exitY=0.5;exitDx=0;exitDy=0;" edge="1" parent="jimW1SZuYFGPeaCcmxh1-1" source="u9J_gCv-DiISZu-6m71f-35" target="u9J_gCv-DiISZu-6m71f-14">
          <mxGeometry width="50" height="50" relative="1" as="geometry">
            <mxPoint x="300" y="760" as="sourcePoint" />
            <mxPoint x="350" y="710" as="targetPoint" />
            <Array as="points">
              <mxPoint x="670" y="900" />
              <mxPoint x="670" y="740" />
              <mxPoint x="670" y="598" />
            </Array>
          </mxGeometry>
        </mxCell>
        <mxCell id="eKpauIbjjusxW1kpMZVV-0" value="while(tram==0)" style="rhombus;whiteSpace=wrap;html=1;" vertex="1" parent="jimW1SZuYFGPeaCcmxh1-1">
          <mxGeometry x="635" y="490" width="90" height="82.5" as="geometry" />
        </mxCell>
        <mxCell id="u9J_gCv-DiISZu-6m71f-40" value="" style="endArrow=classic;html=1;rounded=0;entryX=0;entryY=0.5;entryDx=0;entryDy=0;exitX=1;exitY=0.5;exitDx=0;exitDy=0;" edge="1" parent="jimW1SZuYFGPeaCcmxh1-1">
          <mxGeometry width="50" height="50" relative="1" as="geometry">
            <mxPoint x="80" y="430" as="sourcePoint" />
            <mxPoint x="114" y="430" as="targetPoint" />
          </mxGeometry>
        </mxCell>
        <mxCell id="u9J_gCv-DiISZu-6m71f-41" value="" style="endArrow=classic;html=1;rounded=0;entryX=1;entryY=0;entryDx=0;entryDy=0;exitX=0.5;exitY=1;exitDx=0;exitDy=0;" edge="1" parent="jimW1SZuYFGPeaCcmxh1-1" source="eKpauIbjjusxW1kpMZVV-0" target="u9J_gCv-DiISZu-6m71f-14">
          <mxGeometry width="50" height="50" relative="1" as="geometry">
            <mxPoint x="300" y="390" as="sourcePoint" />
            <mxPoint x="350" y="340" as="targetPoint" />
          </mxGeometry>
        </mxCell>
        <mxCell id="u9J_gCv-DiISZu-6m71f-42" value="" style="endArrow=classic;html=1;rounded=0;entryX=1;entryY=0.5;entryDx=0;entryDy=0;exitX=0;exitY=0.5;exitDx=0;exitDy=0;strokeColor=#FF0800;" edge="1" parent="jimW1SZuYFGPeaCcmxh1-1" source="eKpauIbjjusxW1kpMZVV-0" target="jimW1SZuYFGPeaCcmxh1-44">
          <mxGeometry width="50" height="50" relative="1" as="geometry">
            <mxPoint x="300" y="630" as="sourcePoint" />
            <mxPoint x="350" y="580" as="targetPoint" />
          </mxGeometry>
        </mxCell>
        <mxCell id="u9J_gCv-DiISZu-6m71f-43" value="ISR(LCMP0)&lt;br&gt;tram=1" style="rounded=1;whiteSpace=wrap;html=1;" vertex="1" parent="jimW1SZuYFGPeaCcmxh1-1">
          <mxGeometry x="145" y="605.25" width="80" height="41" as="geometry" />
        </mxCell>
        <mxCell id="u9J_gCv-DiISZu-6m71f-44" value="" style="endArrow=classic;html=1;rounded=0;entryX=0.5;entryY=0;entryDx=0;entryDy=0;exitX=0.5;exitY=1;exitDx=0;exitDy=0;" edge="1" parent="jimW1SZuYFGPeaCcmxh1-1" source="jimW1SZuYFGPeaCcmxh1-44" target="u9J_gCv-DiISZu-6m71f-43">
          <mxGeometry width="50" height="50" relative="1" as="geometry">
            <mxPoint x="300" y="710" as="sourcePoint" />
            <mxPoint x="350" y="660" as="targetPoint" />
          </mxGeometry>
        </mxCell>
        <mxCell id="u9J_gCv-DiISZu-6m71f-46" value="" style="endArrow=classic;html=1;rounded=0;exitX=0;exitY=0.5;exitDx=0;exitDy=0;fillColor=#f8cecc;strokeColor=#FC1919;entryX=1;entryY=0.5;entryDx=0;entryDy=0;" edge="1" parent="jimW1SZuYFGPeaCcmxh1-1" source="jimW1SZuYFGPeaCcmxh1-33" target="jimW1SZuYFGPeaCcmxh1-51">
          <mxGeometry width="50" height="50" relative="1" as="geometry">
            <mxPoint x="210" y="710" as="sourcePoint" />
            <mxPoint x="490" y="690" as="targetPoint" />
          </mxGeometry>
        </mxCell>
        <mxCell id="u9J_gCv-DiISZu-6m71f-47" value="&lt;font color=&quot;#ff0000&quot;&gt;Interrupt&lt;/font&gt;" style="text;html=1;strokeColor=none;fillColor=none;align=center;verticalAlign=middle;whiteSpace=wrap;rounded=0;" vertex="1" parent="jimW1SZuYFGPeaCcmxh1-1">
          <mxGeometry x="420" y="650" width="60" height="30" as="geometry" />
        </mxCell>
        <mxCell id="u9J_gCv-DiISZu-6m71f-48" value="&lt;font color=&quot;#ff0000&quot;&gt;Interrupt&lt;/font&gt;" style="text;html=1;strokeColor=none;fillColor=none;align=center;verticalAlign=middle;whiteSpace=wrap;rounded=0;" vertex="1" parent="jimW1SZuYFGPeaCcmxh1-1">
          <mxGeometry x="380" y="500" width="60" height="30" as="geometry" />
        </mxCell>
        <mxCell id="u9J_gCv-DiISZu-6m71f-49" value="Led Πεζών ON" style="rounded=1;whiteSpace=wrap;html=1;" vertex="1" parent="jimW1SZuYFGPeaCcmxh1-1">
          <mxGeometry x="155" y="661.25" width="60" height="40" as="geometry" />
        </mxCell>
        <mxCell id="u9J_gCv-DiISZu-6m71f-50" value="Led Τραμ ON" style="rounded=1;whiteSpace=wrap;html=1;" vertex="1" parent="jimW1SZuYFGPeaCcmxh1-1">
          <mxGeometry x="155" y="715" width="60" height="40" as="geometry" />
        </mxCell>
        <mxCell id="u9J_gCv-DiISZu-6m71f-51" value="" style="endArrow=classic;html=1;rounded=0;entryX=0.5;entryY=0;entryDx=0;entryDy=0;exitX=0.5;exitY=1;exitDx=0;exitDy=0;" edge="1" parent="jimW1SZuYFGPeaCcmxh1-1" source="u9J_gCv-DiISZu-6m71f-49" target="u9J_gCv-DiISZu-6m71f-50">
          <mxGeometry width="50" height="50" relative="1" as="geometry">
            <mxPoint x="300" y="790" as="sourcePoint" />
            <mxPoint x="350" y="740" as="targetPoint" />
          </mxGeometry>
        </mxCell>
        <mxCell id="u9J_gCv-DiISZu-6m71f-52" value="" style="endArrow=classic;html=1;rounded=0;entryX=0.5;entryY=0;entryDx=0;entryDy=0;exitX=0.5;exitY=1;exitDx=0;exitDy=0;" edge="1" parent="jimW1SZuYFGPeaCcmxh1-1" source="u9J_gCv-DiISZu-6m71f-43" target="u9J_gCv-DiISZu-6m71f-49">
          <mxGeometry width="50" height="50" relative="1" as="geometry">
            <mxPoint x="300" y="790" as="sourcePoint" />
            <mxPoint x="350" y="740" as="targetPoint" />
          </mxGeometry>
        </mxCell>
        <mxCell id="u9J_gCv-DiISZu-6m71f-53" value="&lt;font color=&quot;#ff0000&quot;&gt;Interrupt&lt;/font&gt;" style="text;html=1;strokeColor=none;fillColor=none;align=center;verticalAlign=middle;whiteSpace=wrap;rounded=0;" vertex="1" parent="jimW1SZuYFGPeaCcmxh1-1">
          <mxGeometry x="250" y="616.25" width="60" height="30" as="geometry" />
        </mxCell>
        <mxCell id="u9J_gCv-DiISZu-6m71f-54" value="" style="endArrow=classic;html=1;rounded=0;entryX=0.5;entryY=1;entryDx=0;entryDy=0;exitX=0.5;exitY=1;exitDx=0;exitDy=0;" edge="1" parent="jimW1SZuYFGPeaCcmxh1-1" source="u9J_gCv-DiISZu-6m71f-50" target="eKpauIbjjusxW1kpMZVV-0">
          <mxGeometry width="50" height="50" relative="1" as="geometry">
            <mxPoint x="300" y="790" as="sourcePoint" />
            <mxPoint x="350" y="740" as="targetPoint" />
            <Array as="points">
              <mxPoint x="185" y="1020" />
              <mxPoint x="680" y="1020" />
            </Array>
          </mxGeometry>
        </mxCell>
        <mxCell id="u9J_gCv-DiISZu-6m71f-55" value="" style="endArrow=classic;html=1;rounded=0;exitX=1;exitY=1;exitDx=0;exitDy=0;entryX=0.5;entryY=0;entryDx=0;entryDy=0;" edge="1" parent="jimW1SZuYFGPeaCcmxh1-1" source="eKpauIbjjusxW1kpMZVV-0" target="u9J_gCv-DiISZu-6m71f-58">
          <mxGeometry width="50" height="50" relative="1" as="geometry">
            <mxPoint x="300" y="790" as="sourcePoint" />
            <mxPoint x="730" y="600" as="targetPoint" />
          </mxGeometry>
        </mxCell>
        <mxCell id="u9J_gCv-DiISZu-6m71f-56" value="tram==0" style="text;html=1;strokeColor=none;fillColor=none;align=center;verticalAlign=middle;whiteSpace=wrap;rounded=0;" vertex="1" parent="jimW1SZuYFGPeaCcmxh1-1">
          <mxGeometry x="560" y="542.5" width="60" height="30" as="geometry" />
        </mxCell>
        <mxCell id="u9J_gCv-DiISZu-6m71f-57" value="tram==1" style="text;html=1;strokeColor=none;fillColor=none;align=center;verticalAlign=middle;whiteSpace=wrap;rounded=0;" vertex="1" parent="jimW1SZuYFGPeaCcmxh1-1">
          <mxGeometry x="725" y="560" width="60" height="30" as="geometry" />
        </mxCell>
        <mxCell id="u9J_gCv-DiISZu-6m71f-58" value="&lt;div&gt;O HCNT μετρά για χρόνο Τ2&lt;/div&gt;" style="rounded=1;whiteSpace=wrap;html=1;fontSize=12;glass=0;strokeWidth=1;shadow=0;" vertex="1" parent="jimW1SZuYFGPeaCcmxh1-1">
          <mxGeometry x="695" y="605.25" width="95" height="34.75" as="geometry" />
        </mxCell>
        <mxCell id="u9J_gCv-DiISZu-6m71f-59" value="ISR(HUNF)" style="rounded=1;whiteSpace=wrap;html=1;" vertex="1" parent="jimW1SZuYFGPeaCcmxh1-1">
          <mxGeometry x="702.5" y="669" width="80" height="41" as="geometry" />
        </mxCell>
        <mxCell id="u9J_gCv-DiISZu-6m71f-60" value="" style="endArrow=classic;html=1;rounded=0;entryX=0.5;entryY=0;entryDx=0;entryDy=0;exitX=0.5;exitY=1;exitDx=0;exitDy=0;" edge="1" parent="jimW1SZuYFGPeaCcmxh1-1" source="u9J_gCv-DiISZu-6m71f-58" target="u9J_gCv-DiISZu-6m71f-59">
          <mxGeometry width="50" height="50" relative="1" as="geometry">
            <mxPoint x="760" y="660" as="sourcePoint" />
            <mxPoint x="350" y="740" as="targetPoint" />
          </mxGeometry>
        </mxCell>
        <mxCell id="u9J_gCv-DiISZu-6m71f-61" value="Led Πεζών OFF" style="rounded=1;whiteSpace=wrap;html=1;" vertex="1" parent="jimW1SZuYFGPeaCcmxh1-1">
          <mxGeometry x="712.5" y="730" width="60" height="40" as="geometry" />
        </mxCell>
        <mxCell id="u9J_gCv-DiISZu-6m71f-62" value="Led Tram OFF" style="rounded=1;whiteSpace=wrap;html=1;" vertex="1" parent="jimW1SZuYFGPeaCcmxh1-1">
          <mxGeometry x="712.5" y="786.25" width="60" height="40" as="geometry" />
        </mxCell>
        <mxCell id="u9J_gCv-DiISZu-6m71f-63" value="Car led ON" style="rounded=1;whiteSpace=wrap;html=1;" vertex="1" parent="jimW1SZuYFGPeaCcmxh1-1">
          <mxGeometry x="712.5" y="850" width="60" height="40" as="geometry" />
        </mxCell>
        <mxCell id="u9J_gCv-DiISZu-6m71f-64" value="" style="endArrow=classic;html=1;rounded=0;entryX=0.5;entryY=0;entryDx=0;entryDy=0;" edge="1" parent="jimW1SZuYFGPeaCcmxh1-1" source="u9J_gCv-DiISZu-6m71f-59" target="u9J_gCv-DiISZu-6m71f-61">
          <mxGeometry width="50" height="50" relative="1" as="geometry">
            <mxPoint x="300" y="790" as="sourcePoint" />
            <mxPoint x="350" y="740" as="targetPoint" />
          </mxGeometry>
        </mxCell>
        <mxCell id="u9J_gCv-DiISZu-6m71f-65" value="" style="endArrow=classic;html=1;rounded=0;entryX=0.5;entryY=0;entryDx=0;entryDy=0;exitX=0.5;exitY=1;exitDx=0;exitDy=0;" edge="1" parent="jimW1SZuYFGPeaCcmxh1-1" source="u9J_gCv-DiISZu-6m71f-61" target="u9J_gCv-DiISZu-6m71f-62">
          <mxGeometry width="50" height="50" relative="1" as="geometry">
            <mxPoint x="300" y="790" as="sourcePoint" />
            <mxPoint x="350" y="740" as="targetPoint" />
          </mxGeometry>
        </mxCell>
        <mxCell id="u9J_gCv-DiISZu-6m71f-66" value="" style="endArrow=classic;html=1;rounded=0;entryX=0.5;entryY=0;entryDx=0;entryDy=0;" edge="1" parent="jimW1SZuYFGPeaCcmxh1-1" source="u9J_gCv-DiISZu-6m71f-62" target="u9J_gCv-DiISZu-6m71f-63">
          <mxGeometry width="50" height="50" relative="1" as="geometry">
            <mxPoint x="300" y="790" as="sourcePoint" />
            <mxPoint x="350" y="740" as="targetPoint" />
          </mxGeometry>
        </mxCell>
        <mxCell id="u9J_gCv-DiISZu-6m71f-67" value="" style="endArrow=classic;html=1;rounded=0;entryX=1;entryY=0.5;entryDx=0;entryDy=0;" edge="1" parent="jimW1SZuYFGPeaCcmxh1-1" target="eKpauIbjjusxW1kpMZVV-0">
          <mxGeometry width="50" height="50" relative="1" as="geometry">
            <mxPoint x="770" y="870" as="sourcePoint" />
            <mxPoint x="350" y="740" as="targetPoint" />
            <Array as="points">
              <mxPoint x="810" y="870" />
              <mxPoint x="810" y="531" />
            </Array>
          </mxGeometry>
        </mxCell>
        <mxCell id="u9J_gCv-DiISZu-6m71f-68" value="&lt;div&gt;O HCNT μετρά για χρόνο Τ3&lt;/div&gt;" style="rounded=1;whiteSpace=wrap;html=1;fontSize=12;glass=0;strokeWidth=1;shadow=0;" vertex="1" parent="jimW1SZuYFGPeaCcmxh1-1">
          <mxGeometry x="452.5" y="931.63" width="95" height="34.75" as="geometry" />
        </mxCell>
        <mxCell id="u9J_gCv-DiISZu-6m71f-69" value="" style="endArrow=classic;html=1;rounded=0;entryX=0;entryY=0.5;entryDx=0;entryDy=0;exitX=1;exitY=0.5;exitDx=0;exitDy=0;" edge="1" parent="jimW1SZuYFGPeaCcmxh1-1" source="u9J_gCv-DiISZu-6m71f-22" target="u9J_gCv-DiISZu-6m71f-68">
          <mxGeometry width="50" height="50" relative="1" as="geometry">
            <mxPoint x="300" y="790" as="sourcePoint" />
            <mxPoint x="350" y="740" as="targetPoint" />
          </mxGeometry>
        </mxCell>
        <mxCell id="u9J_gCv-DiISZu-6m71f-71" value="" style="edgeStyle=orthogonalEdgeStyle;rounded=0;orthogonalLoop=1;jettySize=auto;html=1;entryX=0.5;entryY=1;entryDx=0;entryDy=0;exitX=0.5;exitY=0;exitDx=0;exitDy=0;" edge="1" parent="jimW1SZuYFGPeaCcmxh1-1" source="u9J_gCv-DiISZu-6m71f-68" target="u9J_gCv-DiISZu-6m71f-70">
          <mxGeometry relative="1" as="geometry">
            <Array as="points">
              <mxPoint x="500" y="932" />
            </Array>
          </mxGeometry>
        </mxCell>
        <mxCell id="u9J_gCv-DiISZu-6m71f-70" value="ISR(HUNF)&lt;br&gt;pezoi=1" style="rounded=1;whiteSpace=wrap;html=1;" vertex="1" parent="jimW1SZuYFGPeaCcmxh1-1">
          <mxGeometry x="467.5" y="854" width="80" height="41" as="geometry" />
        </mxCell>
      </root>
    </mxGraphModel>
  </diagram>
</mxfile>
